<?xml version="1.0" encoding="utf-8"?>
<!-- Generator: Adobe Illustrator 19.0.0, SVG Export Plug-In . SVG Version: 6.00 Build 0)  -->
<svg version="1.1" id="Layer_1" xmlns="http://www.w3.org/2000/svg" xmlns:xlink="http://www.w3.org/1999/xlink" x="0px" y="0px"
	 viewBox="6 -6 512 512" style="enable-background:new 6 -6 512 512;" xml:space="preserve">
<style type="text/css">
	.st0{fill:#424242;}
	.st1{fill:#0567AD;}
	.st2{fill:#FF8E00;}
	.st3{fill:#0094E4;}
	.st4{fill:#00BBFC;}
	.st5{fill:#FFBA00;}
	.st6{fill:#FDE09C;}
	.st7{font-family:'FranklinGothic-Demi';}
	.st8{font-size:75px;}
	.st9{letter-spacing:2;}
</style>
<g>
	<rect x="411.8" y="61.9" class="st0" width="31.3" height="79.1"/>
	<rect x="466.9" y="63" class="st0" width="31.3" height="78.1"/>
</g>
<path class="st1" d="M195,130.6V506h255c26.7,0,48.3-21.6,48.3-48.3V130.6H195z"/>
<rect x="194.9" y="182.6" class="st2" width="303.3" height="31.3"/>
<g>
	<rect x="25.7" y="-6" class="st0" width="31.3" height="79.1"/>
	<rect x="80.9" y="-6" class="st0" width="31.3" height="79.1"/>
	<rect x="136" y="-6" class="st0" width="31.3" height="79.1"/>
	<rect x="191.2" y="-6" class="st0" width="31.3" height="79.1"/>
	<rect x="246.3" y="-6" class="st0" width="31.3" height="79.1"/>
	<rect x="301.5" y="-6" class="st0" width="31.3" height="79.1"/>
	<rect x="356.6" y="-6" class="st0" width="31.3" height="79.1"/>
</g>
<path class="st3" d="M388,457.7V146V62.7H25.7V146v311.7c0,26.7,21.6,48.3,48.3,48.3h362.2C409.6,506,388,484.4,388,457.7z"/>
<path class="st4" d="M206.9,62.7H25.7V146v311.7c0,26.7,21.6,48.3,48.3,48.3h132.8V62.7L206.9,62.7z"/>
<rect x="25.7" y="109.7" class="st5" width="362.2" height="31.3"/>
<rect x="25.7" y="109.7" class="st6" width="181.1" height="31.3"/>
<text transform="matrix(1 0 0 1 92.041 304.001)"><tspan x="0" y="0" class="st6 st7 st8">Ear</tspan><tspan x="109.4" y="0" class="st5 st7 st8 st9">t</tspan><tspan x="137.9" y="0" class="st5 st7 st8">hCor</tspan><tspan x="291.9" y="0" class="st2 st7 st8">D</tspan></text>
</svg>
